<svg xmlns="http://www.w3.org/2000/svg" width="710" height="138" viewBox="0 0 710 138" version="1.1"><path d="M 124.534 30.750 C 123.608 34.481, 120.142 38, 117.393 38 C 114.266 38, 113.700 40.553, 114.554 50.803 C 116.082 69.152, 124.185 82.515, 138.334 90.021 L 142.754 92.366 147.865 89.087 C 162.367 79.780, 170.465 64.031, 169.793 46.436 L 169.500 38.756 166.034 37.628 C 162.817 36.581, 160.946 34.295, 159.586 29.750 C 159.114 28.173, 157.391 28, 142.140 28 L 125.217 28 124.534 30.750 M 127 32.600 C 127 34.676, 120.676 41, 118.600 41 C 115.024 41, 117.330 59.145, 122.159 69 C 125.645 76.115, 134.650 85.784, 139.763 87.902 C 142.627 89.088, 143.202 88.957, 147.206 86.202 C 159.965 77.424, 167.027 63.982, 166.977 48.568 C 166.955 41.604, 166.907 41.477, 163.727 39.928 C 161.952 39.064, 159.600 36.702, 158.500 34.681 L 156.500 31.005 141.750 31.003 C 128.895 31, 127 31.206, 127 32.600 M 138.123 38.042 C 130.354 39.785, 125 46.581, 125 54.698 C 125 63.121, 129.541 69.493, 137.315 71.978 C 147.689 75.295, 160 66.247, 160 55.306 C 160 44.336, 148.946 35.613, 138.123 38.042 M 137.095 41.306 C 135.222 41.963, 132.323 44.197, 130.653 46.272 C 126.844 51.001, 126.396 58.362, 129.650 62.754 C 134.819 69.731, 141.832 71.657, 148.916 68.043 C 159.564 62.611, 159.428 46.822, 148.691 41.947 C 143.869 39.758, 141.834 39.645, 137.095 41.306 M 139 48.500 C 139 51.833, 138.833 52, 135.500 52 C 132.167 52, 132 52.167, 132 55.500 C 132 58.833, 132.167 59, 135.500 59 C 138.845 59, 139 59.158, 139 62.563 C 139 65.981, 139.133 66.114, 142.250 65.813 C 145.094 65.539, 145.539 65.101, 145.809 62.309 C 146.078 59.531, 146.531 59.078, 149.309 58.809 C 152.101 58.539, 152.539 58.094, 152.813 55.250 C 153.114 52.133, 152.981 52, 149.563 52 C 146.158 52, 146 51.845, 146 48.500 C 146 45.167, 145.833 45, 142.500 45 C 139.167 45, 139 45.167, 139 48.500" stroke="none" fill="#d36a96" fill-rule="evenodd"/><path d="M 198.920 28.022 C 189.755 29.550, 183.553 34.267, 178.723 43.384 C 176.869 46.884, 176.539 49.147, 176.521 58.500 C 176.504 67.606, 176.862 70.283, 178.606 74.051 C 183.620 84.887, 192.024 90.416, 203.500 90.427 C 220.161 90.443, 231.176 78.014, 231.176 59.200 C 231.176 50.473, 229.781 45.386, 225.736 39.375 C 221.832 33.571, 215.918 29.346, 210.500 28.488 C 208.300 28.139, 205.825 27.720, 205 27.556 C 204.175 27.392, 201.439 27.602, 198.920 28.022 M 255.723 28.104 C 249.461 29.071, 242.430 33.270, 240.344 37.289 C 239.427 39.055, 238.677 42.300, 238.677 44.500 C 238.677 53.210, 244.623 58.712, 259.331 63.610 C 268.181 66.557, 272 69.539, 272 73.500 C 272 76.646, 267.943 80.948, 264.795 81.140 C 259.826 81.442, 254.375 80.721, 251.869 79.428 C 249.820 78.372, 249.086 77.057, 248.550 73.484 L 247.862 68.896 243.181 69.198 L 238.500 69.500 238.203 75.732 L 237.905 81.964 243.394 85.475 C 256.398 93.794, 275.807 91.926, 282.005 81.759 C 284.349 77.916, 284.605 71.383, 282.600 66.585 C 280.787 62.247, 274.435 57.930, 264.866 54.533 C 253.422 50.470, 251 48.733, 251 44.587 C 251 42.027, 251.705 40.587, 253.750 38.966 C 256.132 37.078, 257.401 36.850, 263.235 37.259 C 271.163 37.814, 272.618 38.777, 273.510 44.058 C 274.168 47.951, 274.230 48, 278.588 48 L 283 48 283 41.514 C 283 35.115, 282.950 34.996, 279.250 32.619 C 272.727 28.427, 264.210 26.793, 255.723 28.104 M 57 31.779 C 57 35.561, 57.190 35.813, 60.519 36.438 L 64.038 37.098 63.769 59.290 L 63.500 81.482 60.500 81.995 C 57.853 82.448, 57.463 82.959, 57.185 86.332 L 56.870 90.155 76.185 89.827 C 93.446 89.535, 95.996 89.271, 100.166 87.344 C 105.345 84.950, 107.778 81.919, 109.050 76.277 C 110.692 68.999, 107.109 61.180, 101.062 58.847 L 98.624 57.907 101.642 56.072 C 107.894 52.269, 108.918 40.655, 103.499 34.999 C 98.039 29.300, 95.201 28.615, 75.250 28.179 L 57 27.781 57 31.779 M 289 36.500 L 289 45 293.437 45 C 297.711 45, 297.885 44.881, 298.187 41.750 C 298.496 38.537, 298.565 38.497, 304.250 38.200 L 310 37.900 310 59.887 L 310 81.873 306.750 82.187 C 303.783 82.473, 303.473 82.826, 303.190 86.250 L 302.879 90 315.940 90 L 329 90 329 86.063 C 329 82.353, 328.813 82.109, 325.750 81.813 L 322.500 81.500 322.230 59.750 L 321.961 38 327.917 38 L 333.873 38 334.187 41.250 C 334.489 44.389, 334.654 44.500, 339 44.500 L 343.500 44.500 343.790 36.250 L 344.081 28 316.540 28 L 289 28 289 36.500 M 348 31.875 C 348 35.381, 348.286 35.807, 351 36.350 L 354 36.950 354 59.409 L 354 81.867 351.250 82.184 C 348.862 82.458, 348.459 82.994, 348.190 86.250 L 347.879 90 372.440 90 L 397 90 397 81.500 L 397 73 392.060 73 L 387.121 73 386.810 76.750 L 386.500 80.500 376.750 80.786 L 367 81.072 367 72.036 L 367 63 377.555 63 L 388.110 63 387.805 58.250 L 387.500 53.500 377.250 53.215 L 367 52.930 367 45.465 L 367 38 377 38 L 387 38 387 41.500 C 387 44.981, 387.024 45, 391.500 45 L 396 45 396 36.500 L 396 28 372 28 L 348 28 348 31.875 M 403.750 28.576 C 403.337 28.993, 403 30.833, 403 32.667 C 403 35.452, 403.370 36.003, 405.250 36.015 C 410.012 36.048, 410.057 36.281, 409.770 59.562 L 409.500 81.482 406.500 81.995 C 403.867 82.446, 403.462 82.967, 403.190 86.254 L 402.879 90 416 90 L 429.121 90 428.810 86.254 C 428.538 82.966, 428.134 82.447, 425.500 81.997 L 422.500 81.486 422.210 73.243 L 421.919 65 428.210 65.015 C 431.669 65.023, 435.625 65.597, 437 66.291 C 439.974 67.792, 441.866 72.728, 441.944 79.194 C 442.030 86.363, 444.974 89.226, 452.849 89.795 L 459 90.240 459 86.190 C 459 82.750, 458.660 82.091, 456.750 81.820 C 454.775 81.539, 454.414 80.721, 453.798 75.131 C 453.025 68.126, 450.147 62.843, 446.097 60.998 L 443.657 59.887 446.780 57.988 C 451.367 55.198, 453.311 50.759, 452.775 44.295 C 452.224 37.661, 449.881 34.330, 443.426 31.006 C 438.893 28.672, 437.387 28.477, 421.529 28.159 C 412.163 27.972, 404.163 28.160, 403.750 28.576 M 463 31.889 C 463 35.545, 463.210 35.817, 466.519 36.438 L 470.038 37.098 469.769 59.290 L 469.500 81.482 466.500 81.995 C 463.867 82.446, 463.462 82.967, 463.190 86.254 L 462.879 90 485.940 90 L 509 90 509 81.500 L 509 73 504.500 73 C 500.407 73, 500 73.219, 500 75.418 C 500 80.635, 499.372 81, 490.393 81 L 482 81 482 58.975 L 482 36.950 485 36.350 C 487.714 35.807, 488 35.381, 488 31.875 L 488 28 475.500 28 L 463 28 463 31.889 M 536.180 29.704 C 535.663 30.692, 531.286 42.833, 526.453 56.684 C 518.768 78.708, 517.373 81.941, 515.333 82.453 C 513.448 82.926, 513 83.707, 513 86.519 L 513 90 523.500 90 L 534 90 534 86 C 534 82.623, 533.678 82, 531.933 82 C 530.248 82, 529.995 81.584, 530.566 79.750 C 532.799 72.583, 532.042 73, 542.817 73 L 552.683 73 553.842 76.866 C 555.326 81.821, 555.349 81.676, 553 82.290 C 551.468 82.690, 551 83.654, 551 86.406 L 551 90 561.500 90 L 572 90 572 86.070 C 572 82.765, 571.644 82.088, 569.769 81.820 C 567.804 81.538, 566.442 78.327, 558.388 55 L 549.239 28.500 543.179 28.204 C 538.176 27.959, 536.956 28.221, 536.180 29.704 M 576.750 28.568 C 576.337 28.989, 576 30.833, 576 32.667 C 576 35.452, 576.370 36.003, 578.250 36.015 C 583.012 36.048, 583.057 36.281, 582.770 59.562 L 582.500 81.482 579.500 81.995 C 576.851 82.449, 576.463 82.958, 576.184 86.346 L 575.868 90.183 595.684 89.841 C 614.661 89.514, 615.687 89.394, 619.911 87 C 625.973 83.565, 628.250 80.151, 628.720 73.791 C 629.228 66.912, 626.869 62.169, 621.678 59.633 L 617.855 57.766 620.988 55.861 C 627.380 51.974, 628.643 41.295, 623.443 35.115 C 618.983 29.814, 614.381 28.700, 595 28.228 C 585.375 27.994, 577.163 28.147, 576.750 28.568 M 198 37.650 C 194.604 39.008, 190.863 43.721, 189.476 48.391 C 186.370 58.851, 188.429 72.163, 193.975 77.477 C 196.456 79.853, 198.074 80.450, 202.997 80.806 C 208.863 81.230, 209.081 81.154, 212.888 77.347 C 217.424 72.811, 218.989 68.106, 218.989 59 C 218.989 50.349, 217.529 45.548, 213.592 41.252 C 210.740 38.140, 209.648 37.651, 204.915 37.371 C 201.937 37.195, 198.825 37.320, 198 37.650 M 76 46 L 76 54 83.045 54 C 89.192 54, 90.404 53.687, 92.545 51.545 C 95.793 48.298, 95.793 43.702, 92.545 40.455 C 90.404 38.313, 89.192 38, 83.045 38 L 76 38 76 46 M 422 46.531 C 422 56.421, 422.158 56.585, 430.650 55.524 C 434.582 55.033, 436.978 54.112, 438.634 52.457 C 441.837 49.254, 441.799 44.155, 438.548 40.646 C 436.343 38.267, 435.385 38, 429.048 38 L 422 38 422 46.531 M 595 46 L 595 54 601.865 54 C 610.683 54, 614 51.813, 614 46 C 614 40.187, 610.683 38, 601.865 38 L 595 38 595 46 M 539.201 52.836 C 537.441 58.208, 536 62.917, 536 63.301 C 536 63.686, 539.095 64, 542.879 64 L 549.757 64 546.617 54.071 C 544.889 48.611, 543.235 43.901, 542.939 43.606 C 542.644 43.311, 540.962 47.464, 539.201 52.836 M 76 72 L 76 81 81.250 80.976 C 88.387 80.944, 93.868 79.549, 95.543 77.338 C 97.689 74.507, 97.366 67.770, 94.961 65.189 C 93.174 63.270, 91.877 63, 84.461 63 L 76 63 76 72 M 595.211 71.750 L 595.500 80.500 603.111 80.456 C 612.237 80.403, 615.591 78.699, 616.542 73.629 C 617.252 69.843, 615.131 64.648, 612.455 63.621 C 611.565 63.280, 607.256 63, 602.879 63 L 594.922 63 595.211 71.750" stroke="none" fill="#3464bc" fill-rule="evenodd"/></svg>